# xmcd
#
# Track frame offsets: 
#        150
#        24785
#        50020
#        63987
#        86923
#        112000
#        133802
#        157370
#
# Disc length: 2300 seconds
#
# Revision: 0
# Processed by: cddbd v1.5.1PL0 Copyright (c) Steve Scherf et al.
# Submitted via: ExactAudioCopy v0.95a5
#
DISCID=7108fa08
DTITLE=Irek Dudek - Irek Dudek ¹1
DYEAR=1985
DGENRE=Blues
TTITLE0=Something Must Have Changed
TTITLE1=From Alojz To Alex
TTITLE2=Flute Tune
TTITLE3=Dudi Boogie
TTITLE4=The Blues
TTITLE5=Straight Blues
TTITLE6=One Day Hero
TTITLE7=Prizebierka
EXTD=
EXTT0=
EXTT1=
EXTT2=
EXTT3=
EXTT4=
EXTT5=
EXTT6=
EXTT7=
PLAYORDER=
